<?xml version="1.0" encoding="utf-8" standalone="no"?>
<!DOCTYPE svg PUBLIC "-//W3C//DTD SVG 1.1//EN"
  "http://www.w3.org/Graphics/SVG/1.1/DTD/svg11.dtd">
<!-- Created with matplotlib (https://matplotlib.org/) -->
<svg height="356.4275pt" version="1.1" viewBox="0 0 954.605625 356.4275" width="954.605625pt" xmlns="http://www.w3.org/2000/svg" xmlns:xlink="http://www.w3.org/1999/xlink">
 <defs>
  <style type="text/css">
*{stroke-linecap:butt;stroke-linejoin:round;}
  </style>
 </defs>
 <g id="figure_1">
  <g id="patch_1">
   <path d="M 0 356.4275 
L 954.605625 356.4275 
L 954.605625 0 
L 0 0 
z
" style="fill:#ffffff;"/>
  </g>
  <g id="axes_1">
   <g id="patch_2">
    <path d="M 54.605625 315 
L 460.423807 315 
L 460.423807 54 
L 54.605625 54 
z
" style="fill:#ffffff;"/>
   </g>
   <g id="PathCollection_1">
    <defs>
     <path d="M 0 -5 
L -5 5 
L 5 5 
z
" id="m060ca60e44" style="stroke:#0000ff;"/>
    </defs>
    <g clip-path="url(#pa802229e99)">
     <use style="fill:#0000ff;stroke:#0000ff;" x="284.951554" xlink:href="#m060ca60e44" y="173.5815"/>
    </g>
   </g>
   <g id="PathCollection_2">
    <path clip-path="url(#pa802229e99)" d="M 231.224755 225.697 
L 226.224755 235.697 
L 236.224755 235.697 
z
" style="fill:none;stroke:#0000ff;"/>
   </g>
   <g id="PathCollection_3">
    <g clip-path="url(#pa802229e99)">
     <use style="fill:#0000ff;stroke:#0000ff;" x="319.446099" xlink:href="#m060ca60e44" y="239.136"/>
    </g>
   </g>
   <g id="PathCollection_4">
    <path clip-path="url(#pa802229e99)" d="M 319.446099 238.1815 
L 314.446099 248.1815 
L 324.446099 248.1815 
z
" style="fill:none;stroke:#0000ff;"/>
   </g>
   <g id="PathCollection_5">
    <defs>
     <path d="M 0 -5 
L -5 5 
L 5 5 
z
" id="m8323a5c4ca" style="stroke:#008000;"/>
    </defs>
    <g clip-path="url(#pa802229e99)">
     <use style="fill:#008000;stroke:#008000;" x="321.034083" xlink:href="#m8323a5c4ca" y="240.876"/>
    </g>
   </g>
   <g id="PathCollection_6">
    <path clip-path="url(#pa802229e99)" d="M 321.034083 238.747 
L 316.034083 248.747 
L 326.034083 248.747 
z
" style="fill:none;stroke:#008000;"/>
   </g>
   <g id="PathCollection_7">
    <g clip-path="url(#pa802229e99)">
     <use style="fill:#008000;stroke:#008000;" x="319.534321" xlink:href="#m8323a5c4ca" y="241.6155"/>
    </g>
   </g>
   <g id="PathCollection_8">
    <path clip-path="url(#pa802229e99)" d="M 319.534321 238.225 
L 314.534321 248.225 
L 324.534321 248.225 
z
" style="fill:none;stroke:#008000;"/>
   </g>
   <g id="PathCollection_9">
    <g clip-path="url(#pa802229e99)">
     <use style="fill:#008000;stroke:#008000;" x="315.917246" xlink:href="#m8323a5c4ca" y="240.3975"/>
    </g>
   </g>
   <g id="PathCollection_10">
    <path clip-path="url(#pa802229e99)" d="M 315.917246 236.92 
L 310.917246 246.92 
L 320.917246 246.92 
z
" style="fill:none;stroke:#008000;"/>
   </g>
   <g id="PathCollection_11">
    <g clip-path="url(#pa802229e99)">
     <use style="fill:#008000;stroke:#008000;" x="315.740803" xlink:href="#m8323a5c4ca" y="240.7455"/>
    </g>
   </g>
   <g id="PathCollection_12">
    <path clip-path="url(#pa802229e99)" d="M 315.652582 236.833 
L 310.652582 246.833 
L 320.652582 246.833 
z
" style="fill:none;stroke:#008000;"/>
   </g>
   <g id="PathCollection_13">
    <defs>
     <path d="M -0 5 
L 5 -5 
L -5 -5 
z
" id="m928530972f" style="stroke:#ff0000;"/>
    </defs>
    <g clip-path="url(#pa802229e99)">
     <use style="fill:#ff0000;stroke:#ff0000;" x="352.176218" xlink:href="#m928530972f" y="187.806"/>
    </g>
   </g>
   <g id="PathCollection_14">
    <path clip-path="url(#pa802229e99)" d="M 434.751396 260.1005 
L 439.751396 250.1005 
L 429.751396 250.1005 
z
" style="fill:none;stroke:#ff0000;"/>
   </g>
   <g id="PathCollection_15">
    <g clip-path="url(#pa802229e99)">
     <use style="fill:#ff0000;stroke:#ff0000;" x="352.793767" xlink:href="#m928530972f" y="201.9"/>
    </g>
   </g>
   <g id="PathCollection_16">
    <path clip-path="url(#pa802229e99)" d="M 396.904439 260.3615 
L 401.904439 250.3615 
L 391.904439 250.3615 
z
" style="fill:none;stroke:#ff0000;"/>
   </g>
   <g id="PathCollection_17"/>
   <g id="PathCollection_18"/>
   <g id="PathCollection_19"/>
   <g id="matplotlib.axis_1">
    <g id="xtick_1">
     <g id="line2d_1">
      <defs>
       <path d="M 0 0 
L 0 3.5 
" id="maa7078c59e" style="stroke:#000000;stroke-width:0.8;"/>
      </defs>
      <g>
       <use style="stroke:#000000;stroke-width:0.8;" x="54.605625" xlink:href="#maa7078c59e" y="315"/>
      </g>
     </g>
     <g id="text_1">
      <!-- 0 -->
      <defs>
       <path d="M 31.78125 66.40625 
Q 24.171875 66.40625 20.328125 58.90625 
Q 16.5 51.421875 16.5 36.375 
Q 16.5 21.390625 20.328125 13.890625 
Q 24.171875 6.390625 31.78125 6.390625 
Q 39.453125 6.390625 43.28125 13.890625 
Q 47.125 21.390625 47.125 36.375 
Q 47.125 51.421875 43.28125 58.90625 
Q 39.453125 66.40625 31.78125 66.40625 
z
M 31.78125 74.21875 
Q 44.046875 74.21875 50.515625 64.515625 
Q 56.984375 54.828125 56.984375 36.375 
Q 56.984375 17.96875 50.515625 8.265625 
Q 44.046875 -1.421875 31.78125 -1.421875 
Q 19.53125 -1.421875 13.0625 8.265625 
Q 6.59375 17.96875 6.59375 36.375 
Q 6.59375 54.828125 13.0625 64.515625 
Q 19.53125 74.21875 31.78125 74.21875 
z
" id="DejaVuSans-48"/>
      </defs>
      <g transform="translate(51.424375 329.598437)scale(0.1 -0.1)">
       <use xlink:href="#DejaVuSans-48"/>
      </g>
     </g>
    </g>
    <g id="xtick_2">
     <g id="line2d_2">
      <g>
       <use style="stroke:#000000;stroke-width:0.8;" x="142.826969" xlink:href="#maa7078c59e" y="315"/>
      </g>
     </g>
     <g id="text_2">
      <!-- 1000 -->
      <defs>
       <path d="M 12.40625 8.296875 
L 28.515625 8.296875 
L 28.515625 63.921875 
L 10.984375 60.40625 
L 10.984375 69.390625 
L 28.421875 72.90625 
L 38.28125 72.90625 
L 38.28125 8.296875 
L 54.390625 8.296875 
L 54.390625 0 
L 12.40625 0 
z
" id="DejaVuSans-49"/>
      </defs>
      <g transform="translate(130.101969 329.598437)scale(0.1 -0.1)">
       <use xlink:href="#DejaVuSans-49"/>
       <use x="63.623047" xlink:href="#DejaVuSans-48"/>
       <use x="127.246094" xlink:href="#DejaVuSans-48"/>
       <use x="190.869141" xlink:href="#DejaVuSans-48"/>
      </g>
     </g>
    </g>
    <g id="xtick_3">
     <g id="line2d_3">
      <g>
       <use style="stroke:#000000;stroke-width:0.8;" x="231.048313" xlink:href="#maa7078c59e" y="315"/>
      </g>
     </g>
     <g id="text_3">
      <!-- 2000 -->
      <defs>
       <path d="M 19.1875 8.296875 
L 53.609375 8.296875 
L 53.609375 0 
L 7.328125 0 
L 7.328125 8.296875 
Q 12.9375 14.109375 22.625 23.890625 
Q 32.328125 33.6875 34.8125 36.53125 
Q 39.546875 41.84375 41.421875 45.53125 
Q 43.3125 49.21875 43.3125 52.78125 
Q 43.3125 58.59375 39.234375 62.25 
Q 35.15625 65.921875 28.609375 65.921875 
Q 23.96875 65.921875 18.8125 64.3125 
Q 13.671875 62.703125 7.8125 59.421875 
L 7.8125 69.390625 
Q 13.765625 71.78125 18.9375 73 
Q 24.125 74.21875 28.421875 74.21875 
Q 39.75 74.21875 46.484375 68.546875 
Q 53.21875 62.890625 53.21875 53.421875 
Q 53.21875 48.921875 51.53125 44.890625 
Q 49.859375 40.875 45.40625 35.40625 
Q 44.1875 33.984375 37.640625 27.21875 
Q 31.109375 20.453125 19.1875 8.296875 
z
" id="DejaVuSans-50"/>
      </defs>
      <g transform="translate(218.323313 329.598437)scale(0.1 -0.1)">
       <use xlink:href="#DejaVuSans-50"/>
       <use x="63.623047" xlink:href="#DejaVuSans-48"/>
       <use x="127.246094" xlink:href="#DejaVuSans-48"/>
       <use x="190.869141" xlink:href="#DejaVuSans-48"/>
      </g>
     </g>
    </g>
    <g id="xtick_4">
     <g id="line2d_4">
      <g>
       <use style="stroke:#000000;stroke-width:0.8;" x="319.269657" xlink:href="#maa7078c59e" y="315"/>
      </g>
     </g>
     <g id="text_4">
      <!-- 3000 -->
      <defs>
       <path d="M 40.578125 39.3125 
Q 47.65625 37.796875 51.625 33 
Q 55.609375 28.21875 55.609375 21.1875 
Q 55.609375 10.40625 48.1875 4.484375 
Q 40.765625 -1.421875 27.09375 -1.421875 
Q 22.515625 -1.421875 17.65625 -0.515625 
Q 12.796875 0.390625 7.625 2.203125 
L 7.625 11.71875 
Q 11.71875 9.328125 16.59375 8.109375 
Q 21.484375 6.890625 26.8125 6.890625 
Q 36.078125 6.890625 40.9375 10.546875 
Q 45.796875 14.203125 45.796875 21.1875 
Q 45.796875 27.640625 41.28125 31.265625 
Q 36.765625 34.90625 28.71875 34.90625 
L 20.21875 34.90625 
L 20.21875 43.015625 
L 29.109375 43.015625 
Q 36.375 43.015625 40.234375 45.921875 
Q 44.09375 48.828125 44.09375 54.296875 
Q 44.09375 59.90625 40.109375 62.90625 
Q 36.140625 65.921875 28.71875 65.921875 
Q 24.65625 65.921875 20.015625 65.03125 
Q 15.375 64.15625 9.8125 62.3125 
L 9.8125 71.09375 
Q 15.4375 72.65625 20.34375 73.4375 
Q 25.25 74.21875 29.59375 74.21875 
Q 40.828125 74.21875 47.359375 69.109375 
Q 53.90625 64.015625 53.90625 55.328125 
Q 53.90625 49.265625 50.4375 45.09375 
Q 46.96875 40.921875 40.578125 39.3125 
z
" id="DejaVuSans-51"/>
      </defs>
      <g transform="translate(306.544657 329.598437)scale(0.1 -0.1)">
       <use xlink:href="#DejaVuSans-51"/>
       <use x="63.623047" xlink:href="#DejaVuSans-48"/>
       <use x="127.246094" xlink:href="#DejaVuSans-48"/>
       <use x="190.869141" xlink:href="#DejaVuSans-48"/>
      </g>
     </g>
    </g>
    <g id="xtick_5">
     <g id="line2d_5">
      <g>
       <use style="stroke:#000000;stroke-width:0.8;" x="407.491" xlink:href="#maa7078c59e" y="315"/>
      </g>
     </g>
     <g id="text_5">
      <!-- 4000 -->
      <defs>
       <path d="M 37.796875 64.3125 
L 12.890625 25.390625 
L 37.796875 25.390625 
z
M 35.203125 72.90625 
L 47.609375 72.90625 
L 47.609375 25.390625 
L 58.015625 25.390625 
L 58.015625 17.1875 
L 47.609375 17.1875 
L 47.609375 0 
L 37.796875 0 
L 37.796875 17.1875 
L 4.890625 17.1875 
L 4.890625 26.703125 
z
" id="DejaVuSans-52"/>
      </defs>
      <g transform="translate(394.766 329.598437)scale(0.1 -0.1)">
       <use xlink:href="#DejaVuSans-52"/>
       <use x="63.623047" xlink:href="#DejaVuSans-48"/>
       <use x="127.246094" xlink:href="#DejaVuSans-48"/>
       <use x="190.869141" xlink:href="#DejaVuSans-48"/>
      </g>
     </g>
    </g>
    <g id="text_6">
     <!-- Age (Ma) -->
     <defs>
      <path d="M 34.1875 63.1875 
L 20.796875 26.90625 
L 47.609375 26.90625 
z
M 28.609375 72.90625 
L 39.796875 72.90625 
L 67.578125 0 
L 57.328125 0 
L 50.6875 18.703125 
L 17.828125 18.703125 
L 11.1875 0 
L 0.78125 0 
z
" id="DejaVuSans-65"/>
      <path d="M 45.40625 27.984375 
Q 45.40625 37.75 41.375 43.109375 
Q 37.359375 48.484375 30.078125 48.484375 
Q 22.859375 48.484375 18.828125 43.109375 
Q 14.796875 37.75 14.796875 27.984375 
Q 14.796875 18.265625 18.828125 12.890625 
Q 22.859375 7.515625 30.078125 7.515625 
Q 37.359375 7.515625 41.375 12.890625 
Q 45.40625 18.265625 45.40625 27.984375 
z
M 54.390625 6.78125 
Q 54.390625 -7.171875 48.1875 -13.984375 
Q 42 -20.796875 29.203125 -20.796875 
Q 24.46875 -20.796875 20.265625 -20.09375 
Q 16.0625 -19.390625 12.109375 -17.921875 
L 12.109375 -9.1875 
Q 16.0625 -11.328125 19.921875 -12.34375 
Q 23.78125 -13.375 27.78125 -13.375 
Q 36.625 -13.375 41.015625 -8.765625 
Q 45.40625 -4.15625 45.40625 5.171875 
L 45.40625 9.625 
Q 42.625 4.78125 38.28125 2.390625 
Q 33.9375 0 27.875 0 
Q 17.828125 0 11.671875 7.65625 
Q 5.515625 15.328125 5.515625 27.984375 
Q 5.515625 40.671875 11.671875 48.328125 
Q 17.828125 56 27.875 56 
Q 33.9375 56 38.28125 53.609375 
Q 42.625 51.21875 45.40625 46.390625 
L 45.40625 54.6875 
L 54.390625 54.6875 
z
" id="DejaVuSans-103"/>
      <path d="M 56.203125 29.59375 
L 56.203125 25.203125 
L 14.890625 25.203125 
Q 15.484375 15.921875 20.484375 11.0625 
Q 25.484375 6.203125 34.421875 6.203125 
Q 39.59375 6.203125 44.453125 7.46875 
Q 49.3125 8.734375 54.109375 11.28125 
L 54.109375 2.78125 
Q 49.265625 0.734375 44.1875 -0.34375 
Q 39.109375 -1.421875 33.890625 -1.421875 
Q 20.796875 -1.421875 13.15625 6.1875 
Q 5.515625 13.8125 5.515625 26.8125 
Q 5.515625 40.234375 12.765625 48.109375 
Q 20.015625 56 32.328125 56 
Q 43.359375 56 49.78125 48.890625 
Q 56.203125 41.796875 56.203125 29.59375 
z
M 47.21875 32.234375 
Q 47.125 39.59375 43.09375 43.984375 
Q 39.0625 48.390625 32.421875 48.390625 
Q 24.90625 48.390625 20.390625 44.140625 
Q 15.875 39.890625 15.1875 32.171875 
z
" id="DejaVuSans-101"/>
      <path id="DejaVuSans-32"/>
      <path d="M 31 75.875 
Q 24.46875 64.65625 21.28125 53.65625 
Q 18.109375 42.671875 18.109375 31.390625 
Q 18.109375 20.125 21.3125 9.0625 
Q 24.515625 -2 31 -13.1875 
L 23.1875 -13.1875 
Q 15.875 -1.703125 12.234375 9.375 
Q 8.59375 20.453125 8.59375 31.390625 
Q 8.59375 42.28125 12.203125 53.3125 
Q 15.828125 64.359375 23.1875 75.875 
z
" id="DejaVuSans-40"/>
      <path d="M 9.8125 72.90625 
L 24.515625 72.90625 
L 43.109375 23.296875 
L 61.8125 72.90625 
L 76.515625 72.90625 
L 76.515625 0 
L 66.890625 0 
L 66.890625 64.015625 
L 48.09375 14.015625 
L 38.1875 14.015625 
L 19.390625 64.015625 
L 19.390625 0 
L 9.8125 0 
z
" id="DejaVuSans-77"/>
      <path d="M 34.28125 27.484375 
Q 23.390625 27.484375 19.1875 25 
Q 14.984375 22.515625 14.984375 16.5 
Q 14.984375 11.71875 18.140625 8.90625 
Q 21.296875 6.109375 26.703125 6.109375 
Q 34.1875 6.109375 38.703125 11.40625 
Q 43.21875 16.703125 43.21875 25.484375 
L 43.21875 27.484375 
z
M 52.203125 31.203125 
L 52.203125 0 
L 43.21875 0 
L 43.21875 8.296875 
Q 40.140625 3.328125 35.546875 0.953125 
Q 30.953125 -1.421875 24.3125 -1.421875 
Q 15.921875 -1.421875 10.953125 3.296875 
Q 6 8.015625 6 15.921875 
Q 6 25.140625 12.171875 29.828125 
Q 18.359375 34.515625 30.609375 34.515625 
L 43.21875 34.515625 
L 43.21875 35.40625 
Q 43.21875 41.609375 39.140625 45 
Q 35.0625 48.390625 27.6875 48.390625 
Q 23 48.390625 18.546875 47.265625 
Q 14.109375 46.140625 10.015625 43.890625 
L 10.015625 52.203125 
Q 14.9375 54.109375 19.578125 55.046875 
Q 24.21875 56 28.609375 56 
Q 40.484375 56 46.34375 49.84375 
Q 52.203125 43.703125 52.203125 31.203125 
z
" id="DejaVuSans-97"/>
      <path d="M 8.015625 75.875 
L 15.828125 75.875 
Q 23.140625 64.359375 26.78125 53.3125 
Q 30.421875 42.28125 30.421875 31.390625 
Q 30.421875 20.453125 26.78125 9.375 
Q 23.140625 -1.703125 15.828125 -13.1875 
L 8.015625 -13.1875 
Q 14.5 -2 17.703125 9.0625 
Q 20.90625 20.125 20.90625 31.390625 
Q 20.90625 42.671875 17.703125 53.65625 
Q 14.5 64.65625 8.015625 75.875 
z
" id="DejaVuSans-41"/>
     </defs>
     <g transform="translate(225.958935 346.315937)scale(0.14 -0.14)">
      <use xlink:href="#DejaVuSans-65"/>
      <use x="68.408203" xlink:href="#DejaVuSans-103"/>
      <use x="131.884766" xlink:href="#DejaVuSans-101"/>
      <use x="193.408203" xlink:href="#DejaVuSans-32"/>
      <use x="225.195312" xlink:href="#DejaVuSans-40"/>
      <use x="264.208984" xlink:href="#DejaVuSans-77"/>
      <use x="350.488281" xlink:href="#DejaVuSans-97"/>
      <use x="411.767578" xlink:href="#DejaVuSans-41"/>
     </g>
    </g>
   </g>
   <g id="matplotlib.axis_2">
    <g id="ytick_1">
     <g id="line2d_6">
      <defs>
       <path d="M 0 0 
L -3.5 0 
" id="m5f5514abdb" style="stroke:#000000;stroke-width:0.8;"/>
      </defs>
      <g>
       <use style="stroke:#000000;stroke-width:0.8;" x="54.605625" xlink:href="#m5f5514abdb" y="315"/>
      </g>
     </g>
     <g id="text_7">
      <!-- 0.09 -->
      <defs>
       <path d="M 10.6875 12.40625 
L 21 12.40625 
L 21 0 
L 10.6875 0 
z
" id="DejaVuSans-46"/>
       <path d="M 10.984375 1.515625 
L 10.984375 10.5 
Q 14.703125 8.734375 18.5 7.8125 
Q 22.3125 6.890625 25.984375 6.890625 
Q 35.75 6.890625 40.890625 13.453125 
Q 46.046875 20.015625 46.78125 33.40625 
Q 43.953125 29.203125 39.59375 26.953125 
Q 35.25 24.703125 29.984375 24.703125 
Q 19.046875 24.703125 12.671875 31.3125 
Q 6.296875 37.9375 6.296875 49.421875 
Q 6.296875 60.640625 12.9375 67.421875 
Q 19.578125 74.21875 30.609375 74.21875 
Q 43.265625 74.21875 49.921875 64.515625 
Q 56.59375 54.828125 56.59375 36.375 
Q 56.59375 19.140625 48.40625 8.859375 
Q 40.234375 -1.421875 26.421875 -1.421875 
Q 22.703125 -1.421875 18.890625 -0.6875 
Q 15.09375 0.046875 10.984375 1.515625 
z
M 30.609375 32.421875 
Q 37.25 32.421875 41.125 36.953125 
Q 45.015625 41.5 45.015625 49.421875 
Q 45.015625 57.28125 41.125 61.84375 
Q 37.25 66.40625 30.609375 66.40625 
Q 23.96875 66.40625 20.09375 61.84375 
Q 16.21875 57.28125 16.21875 49.421875 
Q 16.21875 41.5 20.09375 36.953125 
Q 23.96875 32.421875 30.609375 32.421875 
z
" id="DejaVuSans-57"/>
      </defs>
      <g transform="translate(25.34 318.799219)scale(0.1 -0.1)">
       <use xlink:href="#DejaVuSans-48"/>
       <use x="63.623047" xlink:href="#DejaVuSans-46"/>
       <use x="95.410156" xlink:href="#DejaVuSans-48"/>
       <use x="159.033203" xlink:href="#DejaVuSans-57"/>
      </g>
     </g>
    </g>
    <g id="ytick_2">
     <g id="line2d_7">
      <g>
       <use style="stroke:#000000;stroke-width:0.8;" x="54.605625" xlink:href="#m5f5514abdb" y="271.5"/>
      </g>
     </g>
     <g id="text_8">
      <!-- 0.10 -->
      <g transform="translate(25.34 275.299219)scale(0.1 -0.1)">
       <use xlink:href="#DejaVuSans-48"/>
       <use x="63.623047" xlink:href="#DejaVuSans-46"/>
       <use x="95.410156" xlink:href="#DejaVuSans-49"/>
       <use x="159.033203" xlink:href="#DejaVuSans-48"/>
      </g>
     </g>
    </g>
    <g id="ytick_3">
     <g id="line2d_8">
      <g>
       <use style="stroke:#000000;stroke-width:0.8;" x="54.605625" xlink:href="#m5f5514abdb" y="228"/>
      </g>
     </g>
     <g id="text_9">
      <!-- 0.11 -->
      <g transform="translate(25.34 231.799219)scale(0.1 -0.1)">
       <use xlink:href="#DejaVuSans-48"/>
       <use x="63.623047" xlink:href="#DejaVuSans-46"/>
       <use x="95.410156" xlink:href="#DejaVuSans-49"/>
       <use x="159.033203" xlink:href="#DejaVuSans-49"/>
      </g>
     </g>
    </g>
    <g id="ytick_4">
     <g id="line2d_9">
      <g>
       <use style="stroke:#000000;stroke-width:0.8;" x="54.605625" xlink:href="#m5f5514abdb" y="184.5"/>
      </g>
     </g>
     <g id="text_10">
      <!-- 0.12 -->
      <g transform="translate(25.34 188.299219)scale(0.1 -0.1)">
       <use xlink:href="#DejaVuSans-48"/>
       <use x="63.623047" xlink:href="#DejaVuSans-46"/>
       <use x="95.410156" xlink:href="#DejaVuSans-49"/>
       <use x="159.033203" xlink:href="#DejaVuSans-50"/>
      </g>
     </g>
    </g>
    <g id="ytick_5">
     <g id="line2d_10">
      <g>
       <use style="stroke:#000000;stroke-width:0.8;" x="54.605625" xlink:href="#m5f5514abdb" y="141"/>
      </g>
     </g>
     <g id="text_11">
      <!-- 0.13 -->
      <g transform="translate(25.34 144.799219)scale(0.1 -0.1)">
       <use xlink:href="#DejaVuSans-48"/>
       <use x="63.623047" xlink:href="#DejaVuSans-46"/>
       <use x="95.410156" xlink:href="#DejaVuSans-49"/>
       <use x="159.033203" xlink:href="#DejaVuSans-51"/>
      </g>
     </g>
    </g>
    <g id="ytick_6">
     <g id="line2d_11">
      <g>
       <use style="stroke:#000000;stroke-width:0.8;" x="54.605625" xlink:href="#m5f5514abdb" y="97.5"/>
      </g>
     </g>
     <g id="text_12">
      <!-- 0.14 -->
      <g transform="translate(25.34 101.299219)scale(0.1 -0.1)">
       <use xlink:href="#DejaVuSans-48"/>
       <use x="63.623047" xlink:href="#DejaVuSans-46"/>
       <use x="95.410156" xlink:href="#DejaVuSans-49"/>
       <use x="159.033203" xlink:href="#DejaVuSans-52"/>
      </g>
     </g>
    </g>
    <g id="ytick_7">
     <g id="line2d_12">
      <g>
       <use style="stroke:#000000;stroke-width:0.8;" x="54.605625" xlink:href="#m5f5514abdb" y="54"/>
      </g>
     </g>
     <g id="text_13">
      <!-- 0.15 -->
      <defs>
       <path d="M 10.796875 72.90625 
L 49.515625 72.90625 
L 49.515625 64.59375 
L 19.828125 64.59375 
L 19.828125 46.734375 
Q 21.96875 47.46875 24.109375 47.828125 
Q 26.265625 48.1875 28.421875 48.1875 
Q 40.625 48.1875 47.75 41.5 
Q 54.890625 34.8125 54.890625 23.390625 
Q 54.890625 11.625 47.5625 5.09375 
Q 40.234375 -1.421875 26.90625 -1.421875 
Q 22.3125 -1.421875 17.546875 -0.640625 
Q 12.796875 0.140625 7.71875 1.703125 
L 7.71875 11.625 
Q 12.109375 9.234375 16.796875 8.0625 
Q 21.484375 6.890625 26.703125 6.890625 
Q 35.15625 6.890625 40.078125 11.328125 
Q 45.015625 15.765625 45.015625 23.390625 
Q 45.015625 31 40.078125 35.4375 
Q 35.15625 39.890625 26.703125 39.890625 
Q 22.75 39.890625 18.8125 39.015625 
Q 14.890625 38.140625 10.796875 36.28125 
z
" id="DejaVuSans-53"/>
      </defs>
      <g transform="translate(25.34 57.799219)scale(0.1 -0.1)">
       <use xlink:href="#DejaVuSans-48"/>
       <use x="63.623047" xlink:href="#DejaVuSans-46"/>
       <use x="95.410156" xlink:href="#DejaVuSans-49"/>
       <use x="159.033203" xlink:href="#DejaVuSans-53"/>
      </g>
     </g>
    </g>
    <g id="text_14">
     <!-- $^{187}Os/^{188}Os$ -->
     <defs>
      <path d="M 31.78125 34.625 
Q 24.75 34.625 20.71875 30.859375 
Q 16.703125 27.09375 16.703125 20.515625 
Q 16.703125 13.921875 20.71875 10.15625 
Q 24.75 6.390625 31.78125 6.390625 
Q 38.8125 6.390625 42.859375 10.171875 
Q 46.921875 13.96875 46.921875 20.515625 
Q 46.921875 27.09375 42.890625 30.859375 
Q 38.875 34.625 31.78125 34.625 
z
M 21.921875 38.8125 
Q 15.578125 40.375 12.03125 44.71875 
Q 8.5 49.078125 8.5 55.328125 
Q 8.5 64.0625 14.71875 69.140625 
Q 20.953125 74.21875 31.78125 74.21875 
Q 42.671875 74.21875 48.875 69.140625 
Q 55.078125 64.0625 55.078125 55.328125 
Q 55.078125 49.078125 51.53125 44.71875 
Q 48 40.375 41.703125 38.8125 
Q 48.828125 37.15625 52.796875 32.3125 
Q 56.78125 27.484375 56.78125 20.515625 
Q 56.78125 9.90625 50.3125 4.234375 
Q 43.84375 -1.421875 31.78125 -1.421875 
Q 19.734375 -1.421875 13.25 4.234375 
Q 6.78125 9.90625 6.78125 20.515625 
Q 6.78125 27.484375 10.78125 32.3125 
Q 14.796875 37.15625 21.921875 38.8125 
z
M 18.3125 54.390625 
Q 18.3125 48.734375 21.84375 45.5625 
Q 25.390625 42.390625 31.78125 42.390625 
Q 38.140625 42.390625 41.71875 45.5625 
Q 45.3125 48.734375 45.3125 54.390625 
Q 45.3125 60.0625 41.71875 63.234375 
Q 38.140625 66.40625 31.78125 66.40625 
Q 25.390625 66.40625 21.84375 63.234375 
Q 18.3125 60.0625 18.3125 54.390625 
z
" id="DejaVuSans-56"/>
      <path d="M 8.203125 72.90625 
L 55.078125 72.90625 
L 55.078125 68.703125 
L 28.609375 0 
L 18.3125 0 
L 43.21875 64.59375 
L 8.203125 64.59375 
z
" id="DejaVuSans-55"/>
      <path d="M 45.609375 66.21875 
Q 37.5 66.21875 31.296875 62.28125 
Q 25.09375 58.34375 20.515625 50.296875 
Q 17.578125 45.171875 16.03125 39.40625 
Q 14.5 33.640625 14.5 27.78125 
Q 14.5 17.625 19.359375 12.109375 
Q 24.21875 6.59375 33.109375 6.59375 
Q 41.109375 6.59375 47.375 10.5625 
Q 53.65625 14.546875 58.109375 22.40625 
Q 61.078125 27.6875 62.640625 33.46875 
Q 64.203125 39.265625 64.203125 45.015625 
Q 64.203125 55.125 59.3125 60.671875 
Q 54.4375 66.21875 45.609375 66.21875 
z
M 32.8125 -1.421875 
Q 19.390625 -1.421875 11.6875 6.53125 
Q 4 14.5 4 28.328125 
Q 4 36.234375 7 44.484375 
Q 10.015625 52.734375 15.28125 59.1875 
Q 21.484375 66.75 29.09375 70.484375 
Q 36.71875 74.21875 45.90625 74.21875 
Q 59.28125 74.21875 66.984375 66.328125 
Q 74.703125 58.453125 74.703125 44.828125 
Q 74.703125 36.421875 71.765625 28.3125 
Q 68.84375 20.21875 63.375 13.625 
Q 57.125 6 49.578125 2.28125 
Q 42.046875 -1.421875 32.8125 -1.421875 
z
" id="DejaVuSans-Oblique-79"/>
      <path d="M 50 53.078125 
L 48.296875 44.578125 
Q 44.734375 46.53125 40.765625 47.5 
Q 36.8125 48.484375 32.625 48.484375 
Q 25.53125 48.484375 21.453125 46.0625 
Q 17.390625 43.65625 17.390625 39.5 
Q 17.390625 34.671875 26.859375 32.078125 
Q 27.59375 31.890625 27.9375 31.78125 
L 30.8125 30.90625 
Q 39.796875 28.421875 42.796875 25.6875 
Q 45.796875 22.953125 45.796875 18.21875 
Q 45.796875 9.515625 38.890625 4.046875 
Q 31.984375 -1.421875 20.796875 -1.421875 
Q 16.453125 -1.421875 11.671875 -0.578125 
Q 6.890625 0.25 1.125 2 
L 2.875 11.28125 
Q 7.8125 8.734375 12.59375 7.421875 
Q 17.390625 6.109375 21.78125 6.109375 
Q 28.375 6.109375 32.5 8.9375 
Q 36.625 11.765625 36.625 16.109375 
Q 36.625 20.796875 25.78125 23.6875 
L 24.859375 23.921875 
L 21.78125 24.703125 
Q 14.9375 26.515625 11.765625 29.46875 
Q 8.59375 32.421875 8.59375 37.015625 
Q 8.59375 45.75 15.15625 50.875 
Q 21.734375 56 33.015625 56 
Q 37.453125 56 41.671875 55.265625 
Q 45.90625 54.546875 50 53.078125 
z
" id="DejaVuSans-Oblique-115"/>
      <path d="M 25.390625 72.90625 
L 33.6875 72.90625 
L 8.296875 -9.28125 
L 0 -9.28125 
z
" id="DejaVuSans-47"/>
     </defs>
     <g transform="translate(18.428438 224.4)rotate(-90)scale(0.14 -0.14)">
      <use transform="translate(0.957031 39.046875)scale(0.7)" xlink:href="#DejaVuSans-49"/>
      <use transform="translate(45.493164 39.046875)scale(0.7)" xlink:href="#DejaVuSans-56"/>
      <use transform="translate(90.029297 39.046875)scale(0.7)" xlink:href="#DejaVuSans-55"/>
      <use transform="translate(137.299805 0.765625)" xlink:href="#DejaVuSans-Oblique-79"/>
      <use transform="translate(216.010742 0.765625)" xlink:href="#DejaVuSans-Oblique-115"/>
      <use transform="translate(268.110352 0.765625)" xlink:href="#DejaVuSans-47"/>
      <use transform="translate(302.758789 39.046875)scale(0.7)" xlink:href="#DejaVuSans-49"/>
      <use transform="translate(347.294922 39.046875)scale(0.7)" xlink:href="#DejaVuSans-56"/>
      <use transform="translate(391.831055 39.046875)scale(0.7)" xlink:href="#DejaVuSans-56"/>
      <use transform="translate(439.101562 0.765625)" xlink:href="#DejaVuSans-Oblique-79"/>
      <use transform="translate(517.8125 0.765625)" xlink:href="#DejaVuSans-Oblique-115"/>
     </g>
    </g>
   </g>
   <g id="line2d_13">
    <path clip-path="url(#pa802229e99)" d="M 54.605625 154.05 
L 63.427759 156.808097 
L 72.249894 159.570638 
L 81.072028 162.33763 
L 89.894163 165.109081 
L 98.716297 167.884997 
L 107.538431 170.665387 
L 116.360566 173.450256 
L 125.1827 176.239612 
L 134.004834 179.033463 
L 142.826969 181.831816 
L 151.649103 184.634678 
L 160.471238 187.442056 
L 169.293372 190.253957 
L 178.115506 193.070389 
L 186.937641 195.89136 
L 195.759775 198.716875 
L 204.58191 201.546944 
L 213.404044 204.381572 
L 222.226178 207.220769 
L 231.048313 210.064539 
L 239.870447 212.912892 
L 248.692582 215.765835 
L 257.514716 218.623374 
L 266.33685 221.485518 
L 275.158985 224.352274 
L 283.981119 227.223648 
L 292.803253 230.09965 
L 301.625388 232.980285 
L 310.447522 235.865562 
L 319.269657 238.755488 
L 328.091791 241.650071 
L 336.913925 244.549318 
L 345.73606 247.453236 
L 354.558194 250.361833 
L 363.380329 253.275117 
L 372.202463 256.193095 
L 381.024597 259.115775 
L 389.846732 262.043164 
L 398.668866 264.97527 
L 407.491 267.9121 
L 416.313135 270.853663 
L 425.135269 273.799965 
L 433.957404 276.751015 
L 442.779538 279.706819 
L 451.601672 282.667387 
L 460.423807 285.632724 
" style="fill:none;stroke:#000000;stroke-linecap:square;stroke-width:1.5;"/>
   </g>
   <g id="patch_3">
    <path d="M 54.605625 315 
L 54.605625 54 
" style="fill:none;stroke:#000000;stroke-linecap:square;stroke-linejoin:miter;stroke-width:0.8;"/>
   </g>
   <g id="patch_4">
    <path d="M 460.423807 315 
L 460.423807 54 
" style="fill:none;stroke:#000000;stroke-linecap:square;stroke-linejoin:miter;stroke-width:0.8;"/>
   </g>
   <g id="patch_5">
    <path d="M 54.605625 315 
L 460.423807 315 
" style="fill:none;stroke:#000000;stroke-linecap:square;stroke-linejoin:miter;stroke-width:0.8;"/>
   </g>
   <g id="patch_6">
    <path d="M 54.605625 54 
L 460.423807 54 
" style="fill:none;stroke:#000000;stroke-linecap:square;stroke-linejoin:miter;stroke-width:0.8;"/>
   </g>
   <g id="text_15">
    <!-- $^{187}Os/^{188}Os$ vs Age (KL calculation) -->
    <defs>
     <path d="M 2.984375 54.6875 
L 12.5 54.6875 
L 29.59375 8.796875 
L 46.6875 54.6875 
L 56.203125 54.6875 
L 35.6875 0 
L 23.484375 0 
z
" id="DejaVuSans-118"/>
     <path d="M 44.28125 53.078125 
L 44.28125 44.578125 
Q 40.484375 46.53125 36.375 47.5 
Q 32.28125 48.484375 27.875 48.484375 
Q 21.1875 48.484375 17.84375 46.4375 
Q 14.5 44.390625 14.5 40.28125 
Q 14.5 37.15625 16.890625 35.375 
Q 19.28125 33.59375 26.515625 31.984375 
L 29.59375 31.296875 
Q 39.15625 29.25 43.1875 25.515625 
Q 47.21875 21.78125 47.21875 15.09375 
Q 47.21875 7.46875 41.1875 3.015625 
Q 35.15625 -1.421875 24.609375 -1.421875 
Q 20.21875 -1.421875 15.453125 -0.5625 
Q 10.6875 0.296875 5.421875 2 
L 5.421875 11.28125 
Q 10.40625 8.6875 15.234375 7.390625 
Q 20.0625 6.109375 24.8125 6.109375 
Q 31.15625 6.109375 34.5625 8.28125 
Q 37.984375 10.453125 37.984375 14.40625 
Q 37.984375 18.0625 35.515625 20.015625 
Q 33.0625 21.96875 24.703125 23.78125 
L 21.578125 24.515625 
Q 13.234375 26.265625 9.515625 29.90625 
Q 5.8125 33.546875 5.8125 39.890625 
Q 5.8125 47.609375 11.28125 51.796875 
Q 16.75 56 26.8125 56 
Q 31.78125 56 36.171875 55.265625 
Q 40.578125 54.546875 44.28125 53.078125 
z
" id="DejaVuSans-115"/>
     <path d="M 9.8125 72.90625 
L 19.671875 72.90625 
L 19.671875 42.09375 
L 52.390625 72.90625 
L 65.09375 72.90625 
L 28.90625 38.921875 
L 67.671875 0 
L 54.6875 0 
L 19.671875 35.109375 
L 19.671875 0 
L 9.8125 0 
z
" id="DejaVuSans-75"/>
     <path d="M 9.8125 72.90625 
L 19.671875 72.90625 
L 19.671875 8.296875 
L 55.171875 8.296875 
L 55.171875 0 
L 9.8125 0 
z
" id="DejaVuSans-76"/>
     <path d="M 48.78125 52.59375 
L 48.78125 44.1875 
Q 44.96875 46.296875 41.140625 47.34375 
Q 37.3125 48.390625 33.40625 48.390625 
Q 24.65625 48.390625 19.8125 42.84375 
Q 14.984375 37.3125 14.984375 27.296875 
Q 14.984375 17.28125 19.8125 11.734375 
Q 24.65625 6.203125 33.40625 6.203125 
Q 37.3125 6.203125 41.140625 7.25 
Q 44.96875 8.296875 48.78125 10.40625 
L 48.78125 2.09375 
Q 45.015625 0.34375 40.984375 -0.53125 
Q 36.96875 -1.421875 32.421875 -1.421875 
Q 20.0625 -1.421875 12.78125 6.34375 
Q 5.515625 14.109375 5.515625 27.296875 
Q 5.515625 40.671875 12.859375 48.328125 
Q 20.21875 56 33.015625 56 
Q 37.15625 56 41.109375 55.140625 
Q 45.0625 54.296875 48.78125 52.59375 
z
" id="DejaVuSans-99"/>
     <path d="M 9.421875 75.984375 
L 18.40625 75.984375 
L 18.40625 0 
L 9.421875 0 
z
" id="DejaVuSans-108"/>
     <path d="M 8.5 21.578125 
L 8.5 54.6875 
L 17.484375 54.6875 
L 17.484375 21.921875 
Q 17.484375 14.15625 20.5 10.265625 
Q 23.53125 6.390625 29.59375 6.390625 
Q 36.859375 6.390625 41.078125 11.03125 
Q 45.3125 15.671875 45.3125 23.6875 
L 45.3125 54.6875 
L 54.296875 54.6875 
L 54.296875 0 
L 45.3125 0 
L 45.3125 8.40625 
Q 42.046875 3.421875 37.71875 1 
Q 33.40625 -1.421875 27.6875 -1.421875 
Q 18.265625 -1.421875 13.375 4.4375 
Q 8.5 10.296875 8.5 21.578125 
z
M 31.109375 56 
z
" id="DejaVuSans-117"/>
     <path d="M 18.3125 70.21875 
L 18.3125 54.6875 
L 36.8125 54.6875 
L 36.8125 47.703125 
L 18.3125 47.703125 
L 18.3125 18.015625 
Q 18.3125 11.328125 20.140625 9.421875 
Q 21.96875 7.515625 27.59375 7.515625 
L 36.8125 7.515625 
L 36.8125 0 
L 27.59375 0 
Q 17.1875 0 13.234375 3.875 
Q 9.28125 7.765625 9.28125 18.015625 
L 9.28125 47.703125 
L 2.6875 47.703125 
L 2.6875 54.6875 
L 9.28125 54.6875 
L 9.28125 70.21875 
z
" id="DejaVuSans-116"/>
     <path d="M 9.421875 54.6875 
L 18.40625 54.6875 
L 18.40625 0 
L 9.421875 0 
z
M 9.421875 75.984375 
L 18.40625 75.984375 
L 18.40625 64.59375 
L 9.421875 64.59375 
z
" id="DejaVuSans-105"/>
     <path d="M 30.609375 48.390625 
Q 23.390625 48.390625 19.1875 42.75 
Q 14.984375 37.109375 14.984375 27.296875 
Q 14.984375 17.484375 19.15625 11.84375 
Q 23.34375 6.203125 30.609375 6.203125 
Q 37.796875 6.203125 41.984375 11.859375 
Q 46.1875 17.53125 46.1875 27.296875 
Q 46.1875 37.015625 41.984375 42.703125 
Q 37.796875 48.390625 30.609375 48.390625 
z
M 30.609375 56 
Q 42.328125 56 49.015625 48.375 
Q 55.71875 40.765625 55.71875 27.296875 
Q 55.71875 13.875 49.015625 6.21875 
Q 42.328125 -1.421875 30.609375 -1.421875 
Q 18.84375 -1.421875 12.171875 6.21875 
Q 5.515625 13.875 5.515625 27.296875 
Q 5.515625 40.765625 12.171875 48.375 
Q 18.84375 56 30.609375 56 
z
" id="DejaVuSans-111"/>
     <path d="M 54.890625 33.015625 
L 54.890625 0 
L 45.90625 0 
L 45.90625 32.71875 
Q 45.90625 40.484375 42.875 44.328125 
Q 39.84375 48.1875 33.796875 48.1875 
Q 26.515625 48.1875 22.3125 43.546875 
Q 18.109375 38.921875 18.109375 30.90625 
L 18.109375 0 
L 9.078125 0 
L 9.078125 54.6875 
L 18.109375 54.6875 
L 18.109375 46.1875 
Q 21.34375 51.125 25.703125 53.5625 
Q 30.078125 56 35.796875 56 
Q 45.21875 56 50.046875 50.171875 
Q 54.890625 44.34375 54.890625 33.015625 
z
" id="DejaVuSans-110"/>
    </defs>
    <g transform="translate(152.814716 48)scale(0.12 -0.12)">
     <use transform="translate(0.957031 39.046875)scale(0.7)" xlink:href="#DejaVuSans-49"/>
     <use transform="translate(45.493164 39.046875)scale(0.7)" xlink:href="#DejaVuSans-56"/>
     <use transform="translate(90.029297 39.046875)scale(0.7)" xlink:href="#DejaVuSans-55"/>
     <use transform="translate(137.299805 0.765625)" xlink:href="#DejaVuSans-Oblique-79"/>
     <use transform="translate(216.010742 0.765625)" xlink:href="#DejaVuSans-Oblique-115"/>
     <use transform="translate(268.110352 0.765625)" xlink:href="#DejaVuSans-47"/>
     <use transform="translate(302.758789 39.046875)scale(0.7)" xlink:href="#DejaVuSans-49"/>
     <use transform="translate(347.294922 39.046875)scale(0.7)" xlink:href="#DejaVuSans-56"/>
     <use transform="translate(391.831055 39.046875)scale(0.7)" xlink:href="#DejaVuSans-56"/>
     <use transform="translate(439.101562 0.765625)" xlink:href="#DejaVuSans-Oblique-79"/>
     <use transform="translate(517.8125 0.765625)" xlink:href="#DejaVuSans-Oblique-115"/>
     <use transform="translate(569.912109 0.765625)" xlink:href="#DejaVuSans-32"/>
     <use transform="translate(601.699219 0.765625)" xlink:href="#DejaVuSans-118"/>
     <use transform="translate(660.878906 0.765625)" xlink:href="#DejaVuSans-115"/>
     <use transform="translate(712.978516 0.765625)" xlink:href="#DejaVuSans-32"/>
     <use transform="translate(744.765625 0.765625)" xlink:href="#DejaVuSans-65"/>
     <use transform="translate(813.173828 0.765625)" xlink:href="#DejaVuSans-103"/>
     <use transform="translate(876.650391 0.765625)" xlink:href="#DejaVuSans-101"/>
     <use transform="translate(938.173828 0.765625)" xlink:href="#DejaVuSans-32"/>
     <use transform="translate(969.960938 0.765625)" xlink:href="#DejaVuSans-40"/>
     <use transform="translate(1008.974609 0.765625)" xlink:href="#DejaVuSans-75"/>
     <use transform="translate(1074.550781 0.765625)" xlink:href="#DejaVuSans-76"/>
     <use transform="translate(1130.263672 0.765625)" xlink:href="#DejaVuSans-32"/>
     <use transform="translate(1162.050781 0.765625)" xlink:href="#DejaVuSans-99"/>
     <use transform="translate(1217.03125 0.765625)" xlink:href="#DejaVuSans-97"/>
     <use transform="translate(1278.310547 0.765625)" xlink:href="#DejaVuSans-108"/>
     <use transform="translate(1306.09375 0.765625)" xlink:href="#DejaVuSans-99"/>
     <use transform="translate(1361.074219 0.765625)" xlink:href="#DejaVuSans-117"/>
     <use transform="translate(1424.453125 0.765625)" xlink:href="#DejaVuSans-108"/>
     <use transform="translate(1452.236328 0.765625)" xlink:href="#DejaVuSans-97"/>
     <use transform="translate(1513.515625 0.765625)" xlink:href="#DejaVuSans-116"/>
     <use transform="translate(1552.724609 0.765625)" xlink:href="#DejaVuSans-105"/>
     <use transform="translate(1580.507812 0.765625)" xlink:href="#DejaVuSans-111"/>
     <use transform="translate(1641.689453 0.765625)" xlink:href="#DejaVuSans-110"/>
     <use transform="translate(1705.068359 0.765625)" xlink:href="#DejaVuSans-41"/>
    </g>
   </g>
   <g id="legend_1">
    <g id="patch_7">
     <path d="M 364.005057 106.034375 
L 453.423807 106.034375 
Q 455.423807 106.034375 455.423807 104.034375 
L 455.423807 61 
Q 455.423807 59 453.423807 59 
L 364.005057 59 
Q 362.005057 59 362.005057 61 
L 362.005057 104.034375 
Q 362.005057 106.034375 364.005057 106.034375 
z
" style="fill:#ffffff;opacity:0.8;stroke:#cccccc;stroke-linejoin:miter;"/>
    </g>
    <g id="PathCollection_20">
     <defs>
      <path d="M -0 3 
L 3 -3 
L -3 -3 
z
" id="mdeb6052c6a" style="stroke:#ff0000;"/>
     </defs>
     <g>
      <use style="fill:#ff0000;stroke:#ff0000;" x="376.005057" xlink:href="#mdeb6052c6a" y="67.973437"/>
     </g>
    </g>
    <g id="text_16">
     <!-- Serpeninite -->
     <defs>
      <path d="M 53.515625 70.515625 
L 53.515625 60.890625 
Q 47.90625 63.578125 42.921875 64.890625 
Q 37.9375 66.21875 33.296875 66.21875 
Q 25.25 66.21875 20.875 63.09375 
Q 16.5 59.96875 16.5 54.203125 
Q 16.5 49.359375 19.40625 46.890625 
Q 22.3125 44.4375 30.421875 42.921875 
L 36.375 41.703125 
Q 47.40625 39.59375 52.65625 34.296875 
Q 57.90625 29 57.90625 20.125 
Q 57.90625 9.515625 50.796875 4.046875 
Q 43.703125 -1.421875 29.984375 -1.421875 
Q 24.8125 -1.421875 18.96875 -0.25 
Q 13.140625 0.921875 6.890625 3.21875 
L 6.890625 13.375 
Q 12.890625 10.015625 18.65625 8.296875 
Q 24.421875 6.59375 29.984375 6.59375 
Q 38.421875 6.59375 43.015625 9.90625 
Q 47.609375 13.234375 47.609375 19.390625 
Q 47.609375 24.75 44.3125 27.78125 
Q 41.015625 30.8125 33.5 32.328125 
L 27.484375 33.5 
Q 16.453125 35.6875 11.515625 40.375 
Q 6.59375 45.0625 6.59375 53.421875 
Q 6.59375 63.09375 13.40625 68.65625 
Q 20.21875 74.21875 32.171875 74.21875 
Q 37.3125 74.21875 42.625 73.28125 
Q 47.953125 72.359375 53.515625 70.515625 
z
" id="DejaVuSans-83"/>
      <path d="M 41.109375 46.296875 
Q 39.59375 47.171875 37.8125 47.578125 
Q 36.03125 48 33.890625 48 
Q 26.265625 48 22.1875 43.046875 
Q 18.109375 38.09375 18.109375 28.8125 
L 18.109375 0 
L 9.078125 0 
L 9.078125 54.6875 
L 18.109375 54.6875 
L 18.109375 46.1875 
Q 20.953125 51.171875 25.484375 53.578125 
Q 30.03125 56 36.53125 56 
Q 37.453125 56 38.578125 55.875 
Q 39.703125 55.765625 41.0625 55.515625 
z
" id="DejaVuSans-114"/>
      <path d="M 18.109375 8.203125 
L 18.109375 -20.796875 
L 9.078125 -20.796875 
L 9.078125 54.6875 
L 18.109375 54.6875 
L 18.109375 46.390625 
Q 20.953125 51.265625 25.265625 53.625 
Q 29.59375 56 35.59375 56 
Q 45.5625 56 51.78125 48.09375 
Q 58.015625 40.1875 58.015625 27.296875 
Q 58.015625 14.40625 51.78125 6.484375 
Q 45.5625 -1.421875 35.59375 -1.421875 
Q 29.59375 -1.421875 25.265625 0.953125 
Q 20.953125 3.328125 18.109375 8.203125 
z
M 48.6875 27.296875 
Q 48.6875 37.203125 44.609375 42.84375 
Q 40.53125 48.484375 33.40625 48.484375 
Q 26.265625 48.484375 22.1875 42.84375 
Q 18.109375 37.203125 18.109375 27.296875 
Q 18.109375 17.390625 22.1875 11.75 
Q 26.265625 6.109375 33.40625 6.109375 
Q 40.53125 6.109375 44.609375 11.75 
Q 48.6875 17.390625 48.6875 27.296875 
z
" id="DejaVuSans-112"/>
     </defs>
     <g transform="translate(394.005057 70.598437)scale(0.1 -0.1)">
      <use xlink:href="#DejaVuSans-83"/>
      <use x="63.476562" xlink:href="#DejaVuSans-101"/>
      <use x="125" xlink:href="#DejaVuSans-114"/>
      <use x="166.113281" xlink:href="#DejaVuSans-112"/>
      <use x="229.589844" xlink:href="#DejaVuSans-101"/>
      <use x="291.113281" xlink:href="#DejaVuSans-110"/>
      <use x="354.492188" xlink:href="#DejaVuSans-105"/>
      <use x="382.275391" xlink:href="#DejaVuSans-110"/>
      <use x="445.654297" xlink:href="#DejaVuSans-105"/>
      <use x="473.4375" xlink:href="#DejaVuSans-116"/>
      <use x="512.646484" xlink:href="#DejaVuSans-101"/>
     </g>
    </g>
    <g id="PathCollection_21">
     <defs>
      <path d="M 0 -3 
L -3 3 
L 3 3 
z
" id="m14cb3f0a63" style="stroke:#008000;"/>
     </defs>
     <g>
      <use style="fill:#008000;stroke:#008000;" x="376.005057" xlink:href="#m14cb3f0a63" y="82.651562"/>
     </g>
    </g>
    <g id="text_17">
     <!-- Dunite -->
     <defs>
      <path d="M 19.671875 64.796875 
L 19.671875 8.109375 
L 31.59375 8.109375 
Q 46.6875 8.109375 53.6875 14.9375 
Q 60.6875 21.78125 60.6875 36.53125 
Q 60.6875 51.171875 53.6875 57.984375 
Q 46.6875 64.796875 31.59375 64.796875 
z
M 9.8125 72.90625 
L 30.078125 72.90625 
Q 51.265625 72.90625 61.171875 64.09375 
Q 71.09375 55.28125 71.09375 36.53125 
Q 71.09375 17.671875 61.125 8.828125 
Q 51.171875 0 30.078125 0 
L 9.8125 0 
z
" id="DejaVuSans-68"/>
     </defs>
     <g transform="translate(394.005057 85.276562)scale(0.1 -0.1)">
      <use xlink:href="#DejaVuSans-68"/>
      <use x="77.001953" xlink:href="#DejaVuSans-117"/>
      <use x="140.380859" xlink:href="#DejaVuSans-110"/>
      <use x="203.759766" xlink:href="#DejaVuSans-105"/>
      <use x="231.542969" xlink:href="#DejaVuSans-116"/>
      <use x="270.751953" xlink:href="#DejaVuSans-101"/>
     </g>
    </g>
    <g id="PathCollection_22">
     <defs>
      <path d="M 0 -3 
L -3 3 
L 3 3 
z
" id="m71033962d0" style="stroke:#0000ff;"/>
     </defs>
     <g>
      <use style="fill:#0000ff;stroke:#0000ff;" x="376.005057" xlink:href="#m71033962d0" y="97.329687"/>
     </g>
    </g>
    <g id="text_18">
     <!-- Cumulate -->
     <defs>
      <path d="M 64.40625 67.28125 
L 64.40625 56.890625 
Q 59.421875 61.53125 53.78125 63.8125 
Q 48.140625 66.109375 41.796875 66.109375 
Q 29.296875 66.109375 22.65625 58.46875 
Q 16.015625 50.828125 16.015625 36.375 
Q 16.015625 21.96875 22.65625 14.328125 
Q 29.296875 6.6875 41.796875 6.6875 
Q 48.140625 6.6875 53.78125 8.984375 
Q 59.421875 11.28125 64.40625 15.921875 
L 64.40625 5.609375 
Q 59.234375 2.09375 53.4375 0.328125 
Q 47.65625 -1.421875 41.21875 -1.421875 
Q 24.65625 -1.421875 15.125 8.703125 
Q 5.609375 18.84375 5.609375 36.375 
Q 5.609375 53.953125 15.125 64.078125 
Q 24.65625 74.21875 41.21875 74.21875 
Q 47.75 74.21875 53.53125 72.484375 
Q 59.328125 70.75 64.40625 67.28125 
z
" id="DejaVuSans-67"/>
      <path d="M 52 44.1875 
Q 55.375 50.25 60.0625 53.125 
Q 64.75 56 71.09375 56 
Q 79.640625 56 84.28125 50.015625 
Q 88.921875 44.046875 88.921875 33.015625 
L 88.921875 0 
L 79.890625 0 
L 79.890625 32.71875 
Q 79.890625 40.578125 77.09375 44.375 
Q 74.3125 48.1875 68.609375 48.1875 
Q 61.625 48.1875 57.5625 43.546875 
Q 53.515625 38.921875 53.515625 30.90625 
L 53.515625 0 
L 44.484375 0 
L 44.484375 32.71875 
Q 44.484375 40.625 41.703125 44.40625 
Q 38.921875 48.1875 33.109375 48.1875 
Q 26.21875 48.1875 22.15625 43.53125 
Q 18.109375 38.875 18.109375 30.90625 
L 18.109375 0 
L 9.078125 0 
L 9.078125 54.6875 
L 18.109375 54.6875 
L 18.109375 46.1875 
Q 21.1875 51.21875 25.484375 53.609375 
Q 29.78125 56 35.6875 56 
Q 41.65625 56 45.828125 52.96875 
Q 50 49.953125 52 44.1875 
z
" id="DejaVuSans-109"/>
     </defs>
     <g transform="translate(394.005057 99.954687)scale(0.1 -0.1)">
      <use xlink:href="#DejaVuSans-67"/>
      <use x="69.824219" xlink:href="#DejaVuSans-117"/>
      <use x="133.203125" xlink:href="#DejaVuSans-109"/>
      <use x="230.615234" xlink:href="#DejaVuSans-117"/>
      <use x="293.994141" xlink:href="#DejaVuSans-108"/>
      <use x="321.777344" xlink:href="#DejaVuSans-97"/>
      <use x="383.056641" xlink:href="#DejaVuSans-116"/>
      <use x="422.265625" xlink:href="#DejaVuSans-101"/>
     </g>
    </g>
   </g>
  </g>
  <g id="axes_2">
   <g id="patch_8">
    <path d="M 541.587443 315 
L 947.405625 315 
L 947.405625 54 
L 541.587443 54 
z
" style="fill:#ffffff;"/>
   </g>
   <g id="PathCollection_23">
    <g clip-path="url(#pcd79304219)">
     <use style="fill:#0000ff;stroke:#0000ff;" x="601.666178" xlink:href="#m060ca60e44" y="173.5815"/>
    </g>
   </g>
   <g id="PathCollection_24">
    <path clip-path="url(#pcd79304219)" d="M 711.942858 205.017451 
L 706.942858 215.017451 
L 716.942858 215.017451 
z
" style="fill:none;stroke:#0000ff;"/>
   </g>
   <g id="PathCollection_25">
    <g clip-path="url(#pcd79304219)">
     <use style="fill:#0000ff;stroke:#0000ff;" x="798.487997" xlink:href="#m060ca60e44" y="239.136"/>
    </g>
   </g>
   <g id="PathCollection_26">
    <path clip-path="url(#pcd79304219)" d="M 810.574321 238.240131 
L 805.574321 248.240131 
L 815.574321 248.240131 
z
" style="fill:none;stroke:#0000ff;"/>
   </g>
   <g id="PathCollection_27">
    <g clip-path="url(#pcd79304219)">
     <use style="fill:#008000;stroke:#008000;" x="803.604834" xlink:href="#m8323a5c4ca" y="240.876"/>
    </g>
   </g>
   <g id="PathCollection_28">
    <path clip-path="url(#pcd79304219)" d="M 812.338748 238.838005 
L 807.338748 248.838005 
L 817.338748 248.838005 
z
" style="fill:none;stroke:#008000;"/>
   </g>
   <g id="PathCollection_29">
    <g clip-path="url(#pcd79304219)">
     <use style="fill:#008000;stroke:#008000;" x="805.810368" xlink:href="#m8323a5c4ca" y="241.6155"/>
    </g>
   </g>
   <g id="PathCollection_30">
    <path clip-path="url(#pcd79304219)" d="M 810.574321 238.251621 
L 805.574321 248.251621 
L 815.574321 248.251621 
z
" style="fill:none;stroke:#008000;"/>
   </g>
   <g id="PathCollection_31">
    <g clip-path="url(#pcd79304219)">
     <use style="fill:#008000;stroke:#008000;" x="802.193293" xlink:href="#m8323a5c4ca" y="240.3975"/>
    </g>
   </g>
   <g id="PathCollection_32">
    <path clip-path="url(#pcd79304219)" d="M 806.692582 236.933486 
L 801.692582 246.933486 
L 811.692582 246.933486 
z
" style="fill:none;stroke:#008000;"/>
   </g>
   <g id="PathCollection_33">
    <g clip-path="url(#pcd79304219)">
     <use style="fill:#008000;stroke:#008000;" x="803.251949" xlink:href="#m8323a5c4ca" y="240.7455"/>
    </g>
   </g>
   <g id="PathCollection_34">
    <path clip-path="url(#pcd79304219)" d="M 806.339696 236.819089 
L 801.339696 246.819089 
L 811.339696 246.819089 
z
" style="fill:none;stroke:#008000;"/>
   </g>
   <g id="PathCollection_35">
    <g clip-path="url(#pcd79304219)">
     <use style="fill:#ff0000;stroke:#ff0000;" x="644.982858" xlink:href="#m928530972f" y="187.806"/>
    </g>
   </g>
   <g id="PathCollection_36">
    <path clip-path="url(#pcd79304219)" d="M 972.636929 304.215059 
L 977.636929 294.215059 
L 967.636929 294.215059 
z
" style="fill:none;stroke:#ff0000;"/>
   </g>
   <g id="PathCollection_37">
    <g clip-path="url(#pcd79304219)">
     <use style="fill:#ff0000;stroke:#ff0000;" x="687.593767" xlink:href="#m928530972f" y="201.9"/>
    </g>
   </g>
   <g id="PathCollection_38">
    <path clip-path="url(#pcd79304219)" d="M 907.882463 281.641017 
L 912.882463 271.641017 
L 902.882463 271.641017 
z
" style="fill:none;stroke:#ff0000;"/>
   </g>
   <g id="PathCollection_39"/>
   <g id="PathCollection_40">
    <path clip-path="url(#pcd79304219)" d="M -0 359.4275 
L 3 353.4275 
L -3 353.4275 
z
" style="fill:none;stroke:#000000;"/>
   </g>
   <g id="matplotlib.axis_3">
    <g id="xtick_6">
     <g id="line2d_14">
      <g>
       <use style="stroke:#000000;stroke-width:0.8;" x="541.587443" xlink:href="#maa7078c59e" y="315"/>
      </g>
     </g>
     <g id="text_19">
      <!-- 0 -->
      <g transform="translate(538.406193 329.598437)scale(0.1 -0.1)">
       <use xlink:href="#DejaVuSans-48"/>
      </g>
     </g>
    </g>
    <g id="xtick_7">
     <g id="line2d_15">
      <g>
       <use style="stroke:#000000;stroke-width:0.8;" x="629.808787" xlink:href="#maa7078c59e" y="315"/>
      </g>
     </g>
     <g id="text_20">
      <!-- 1000 -->
      <g transform="translate(617.083787 329.598437)scale(0.1 -0.1)">
       <use xlink:href="#DejaVuSans-49"/>
       <use x="63.623047" xlink:href="#DejaVuSans-48"/>
       <use x="127.246094" xlink:href="#DejaVuSans-48"/>
       <use x="190.869141" xlink:href="#DejaVuSans-48"/>
      </g>
     </g>
    </g>
    <g id="xtick_8">
     <g id="line2d_16">
      <g>
       <use style="stroke:#000000;stroke-width:0.8;" x="718.030131" xlink:href="#maa7078c59e" y="315"/>
      </g>
     </g>
     <g id="text_21">
      <!-- 2000 -->
      <g transform="translate(705.305131 329.598437)scale(0.1 -0.1)">
       <use xlink:href="#DejaVuSans-50"/>
       <use x="63.623047" xlink:href="#DejaVuSans-48"/>
       <use x="127.246094" xlink:href="#DejaVuSans-48"/>
       <use x="190.869141" xlink:href="#DejaVuSans-48"/>
      </g>
     </g>
    </g>
    <g id="xtick_9">
     <g id="line2d_17">
      <g>
       <use style="stroke:#000000;stroke-width:0.8;" x="806.251475" xlink:href="#maa7078c59e" y="315"/>
      </g>
     </g>
     <g id="text_22">
      <!-- 3000 -->
      <g transform="translate(793.526475 329.598437)scale(0.1 -0.1)">
       <use xlink:href="#DejaVuSans-51"/>
       <use x="63.623047" xlink:href="#DejaVuSans-48"/>
       <use x="127.246094" xlink:href="#DejaVuSans-48"/>
       <use x="190.869141" xlink:href="#DejaVuSans-48"/>
      </g>
     </g>
    </g>
    <g id="xtick_10">
     <g id="line2d_18">
      <g>
       <use style="stroke:#000000;stroke-width:0.8;" x="894.472819" xlink:href="#maa7078c59e" y="315"/>
      </g>
     </g>
     <g id="text_23">
      <!-- 4000 -->
      <g transform="translate(881.747819 329.598437)scale(0.1 -0.1)">
       <use xlink:href="#DejaVuSans-52"/>
       <use x="63.623047" xlink:href="#DejaVuSans-48"/>
       <use x="127.246094" xlink:href="#DejaVuSans-48"/>
       <use x="190.869141" xlink:href="#DejaVuSans-48"/>
      </g>
     </g>
    </g>
    <g id="text_24">
     <!-- Age (Ma) -->
     <g transform="translate(712.940753 346.315937)scale(0.14 -0.14)">
      <use xlink:href="#DejaVuSans-65"/>
      <use x="68.408203" xlink:href="#DejaVuSans-103"/>
      <use x="131.884766" xlink:href="#DejaVuSans-101"/>
      <use x="193.408203" xlink:href="#DejaVuSans-32"/>
      <use x="225.195312" xlink:href="#DejaVuSans-40"/>
      <use x="264.208984" xlink:href="#DejaVuSans-77"/>
      <use x="350.488281" xlink:href="#DejaVuSans-97"/>
      <use x="411.767578" xlink:href="#DejaVuSans-41"/>
     </g>
    </g>
   </g>
   <g id="matplotlib.axis_4">
    <g id="ytick_8">
     <g id="line2d_19">
      <g>
       <use style="stroke:#000000;stroke-width:0.8;" x="541.587443" xlink:href="#m5f5514abdb" y="315"/>
      </g>
     </g>
     <g id="text_25">
      <!-- 0.09 -->
      <g transform="translate(512.321818 318.799219)scale(0.1 -0.1)">
       <use xlink:href="#DejaVuSans-48"/>
       <use x="63.623047" xlink:href="#DejaVuSans-46"/>
       <use x="95.410156" xlink:href="#DejaVuSans-48"/>
       <use x="159.033203" xlink:href="#DejaVuSans-57"/>
      </g>
     </g>
    </g>
    <g id="ytick_9">
     <g id="line2d_20">
      <g>
       <use style="stroke:#000000;stroke-width:0.8;" x="541.587443" xlink:href="#m5f5514abdb" y="271.5"/>
      </g>
     </g>
     <g id="text_26">
      <!-- 0.10 -->
      <g transform="translate(512.321818 275.299219)scale(0.1 -0.1)">
       <use xlink:href="#DejaVuSans-48"/>
       <use x="63.623047" xlink:href="#DejaVuSans-46"/>
       <use x="95.410156" xlink:href="#DejaVuSans-49"/>
       <use x="159.033203" xlink:href="#DejaVuSans-48"/>
      </g>
     </g>
    </g>
    <g id="ytick_10">
     <g id="line2d_21">
      <g>
       <use style="stroke:#000000;stroke-width:0.8;" x="541.587443" xlink:href="#m5f5514abdb" y="228"/>
      </g>
     </g>
     <g id="text_27">
      <!-- 0.11 -->
      <g transform="translate(512.321818 231.799219)scale(0.1 -0.1)">
       <use xlink:href="#DejaVuSans-48"/>
       <use x="63.623047" xlink:href="#DejaVuSans-46"/>
       <use x="95.410156" xlink:href="#DejaVuSans-49"/>
       <use x="159.033203" xlink:href="#DejaVuSans-49"/>
      </g>
     </g>
    </g>
    <g id="ytick_11">
     <g id="line2d_22">
      <g>
       <use style="stroke:#000000;stroke-width:0.8;" x="541.587443" xlink:href="#m5f5514abdb" y="184.5"/>
      </g>
     </g>
     <g id="text_28">
      <!-- 0.12 -->
      <g transform="translate(512.321818 188.299219)scale(0.1 -0.1)">
       <use xlink:href="#DejaVuSans-48"/>
       <use x="63.623047" xlink:href="#DejaVuSans-46"/>
       <use x="95.410156" xlink:href="#DejaVuSans-49"/>
       <use x="159.033203" xlink:href="#DejaVuSans-50"/>
      </g>
     </g>
    </g>
    <g id="ytick_12">
     <g id="line2d_23">
      <g>
       <use style="stroke:#000000;stroke-width:0.8;" x="541.587443" xlink:href="#m5f5514abdb" y="141"/>
      </g>
     </g>
     <g id="text_29">
      <!-- 0.13 -->
      <g transform="translate(512.321818 144.799219)scale(0.1 -0.1)">
       <use xlink:href="#DejaVuSans-48"/>
       <use x="63.623047" xlink:href="#DejaVuSans-46"/>
       <use x="95.410156" xlink:href="#DejaVuSans-49"/>
       <use x="159.033203" xlink:href="#DejaVuSans-51"/>
      </g>
     </g>
    </g>
    <g id="ytick_13">
     <g id="line2d_24">
      <g>
       <use style="stroke:#000000;stroke-width:0.8;" x="541.587443" xlink:href="#m5f5514abdb" y="97.5"/>
      </g>
     </g>
     <g id="text_30">
      <!-- 0.14 -->
      <g transform="translate(512.321818 101.299219)scale(0.1 -0.1)">
       <use xlink:href="#DejaVuSans-48"/>
       <use x="63.623047" xlink:href="#DejaVuSans-46"/>
       <use x="95.410156" xlink:href="#DejaVuSans-49"/>
       <use x="159.033203" xlink:href="#DejaVuSans-52"/>
      </g>
     </g>
    </g>
    <g id="ytick_14">
     <g id="line2d_25">
      <g>
       <use style="stroke:#000000;stroke-width:0.8;" x="541.587443" xlink:href="#m5f5514abdb" y="54"/>
      </g>
     </g>
     <g id="text_31">
      <!-- 0.15 -->
      <g transform="translate(512.321818 57.799219)scale(0.1 -0.1)">
       <use xlink:href="#DejaVuSans-48"/>
       <use x="63.623047" xlink:href="#DejaVuSans-46"/>
       <use x="95.410156" xlink:href="#DejaVuSans-49"/>
       <use x="159.033203" xlink:href="#DejaVuSans-53"/>
      </g>
     </g>
    </g>
    <g id="text_32">
     <!-- $^{187}Os/^{188}Os$ -->
     <g transform="translate(505.410256 224.4)rotate(-90)scale(0.14 -0.14)">
      <use transform="translate(0.957031 39.046875)scale(0.7)" xlink:href="#DejaVuSans-49"/>
      <use transform="translate(45.493164 39.046875)scale(0.7)" xlink:href="#DejaVuSans-56"/>
      <use transform="translate(90.029297 39.046875)scale(0.7)" xlink:href="#DejaVuSans-55"/>
      <use transform="translate(137.299805 0.765625)" xlink:href="#DejaVuSans-Oblique-79"/>
      <use transform="translate(216.010742 0.765625)" xlink:href="#DejaVuSans-Oblique-115"/>
      <use transform="translate(268.110352 0.765625)" xlink:href="#DejaVuSans-47"/>
      <use transform="translate(302.758789 39.046875)scale(0.7)" xlink:href="#DejaVuSans-49"/>
      <use transform="translate(347.294922 39.046875)scale(0.7)" xlink:href="#DejaVuSans-56"/>
      <use transform="translate(391.831055 39.046875)scale(0.7)" xlink:href="#DejaVuSans-56"/>
      <use transform="translate(439.101562 0.765625)" xlink:href="#DejaVuSans-Oblique-79"/>
      <use transform="translate(517.8125 0.765625)" xlink:href="#DejaVuSans-Oblique-115"/>
     </g>
    </g>
   </g>
   <g id="line2d_26">
    <path clip-path="url(#pcd79304219)" d="M 541.587443 154.05 
L 550.409578 156.808097 
L 559.231712 159.570638 
L 568.053846 162.33763 
L 576.875981 165.109081 
L 585.698115 167.884997 
L 594.52025 170.665387 
L 603.342384 173.450256 
L 612.164518 176.239612 
L 620.986653 179.033463 
L 629.808787 181.831816 
L 638.630921 184.634678 
L 647.453056 187.442056 
L 656.27519 190.253957 
L 665.097325 193.070389 
L 673.919459 195.89136 
L 682.741593 198.716875 
L 691.563728 201.546944 
L 700.385862 204.381572 
L 709.207997 207.220769 
L 718.030131 210.064539 
L 726.852265 212.912892 
L 735.6744 215.765835 
L 744.496534 218.623374 
L 753.318668 221.485518 
L 762.140803 224.352274 
L 770.962937 227.223648 
L 779.785072 230.09965 
L 788.607206 232.980285 
L 797.42934 235.865562 
L 806.251475 238.755488 
L 815.073609 241.650071 
L 823.895744 244.549318 
L 832.717878 247.453236 
L 841.540012 250.361833 
L 850.362147 253.275117 
L 859.184281 256.193095 
L 868.006416 259.115775 
L 876.82855 262.043164 
L 885.650684 264.97527 
L 894.472819 267.9121 
L 903.294953 270.853663 
L 912.117087 273.799965 
L 920.939222 276.751015 
L 929.761356 279.706819 
L 938.583491 282.667387 
L 947.405625 285.632724 
" style="fill:none;stroke:#000000;stroke-linecap:square;stroke-width:1.5;"/>
   </g>
   <g id="line2d_27">
    <path clip-path="url(#pcd79304219)" d="M 541.587443 173.5815 
L 601.666178 173.5815 
" style="fill:none;stroke:#000000;stroke-dasharray:1.85,0.8;stroke-dashoffset:0;stroke-width:0.5;"/>
   </g>
   <g id="line2d_28">
    <path clip-path="url(#pcd79304219)" d="M 541.587443 173.5815 
L 711.942858 210.017451 
" style="fill:none;stroke:#000000;stroke-dasharray:1.85,0.8;stroke-dashoffset:0;stroke-width:0.5;"/>
   </g>
   <g id="line2d_29">
    <path clip-path="url(#pcd79304219)" d="M 541.587443 239.136 
L 798.487997 239.136 
" style="fill:none;stroke:#000000;stroke-dasharray:1.85,0.8;stroke-dashoffset:0;stroke-width:0.5;"/>
   </g>
   <g id="line2d_30">
    <path clip-path="url(#pcd79304219)" d="M 541.587443 239.136 
L 810.574321 243.240131 
" style="fill:none;stroke:#000000;stroke-dasharray:1.85,0.8;stroke-dashoffset:0;stroke-width:0.5;"/>
   </g>
   <g id="line2d_31">
    <path clip-path="url(#pcd79304219)" d="M 541.587443 240.876 
L 803.604834 240.876 
" style="fill:none;stroke:#000000;stroke-dasharray:1.85,0.8;stroke-dashoffset:0;stroke-width:0.5;"/>
   </g>
   <g id="line2d_32">
    <path clip-path="url(#pcd79304219)" d="M 541.587443 240.876 
L 812.338748 243.838005 
" style="fill:none;stroke:#000000;stroke-dasharray:1.85,0.8;stroke-dashoffset:0;stroke-width:0.5;"/>
   </g>
   <g id="line2d_33">
    <path clip-path="url(#pcd79304219)" d="M 541.587443 241.6155 
L 805.810368 241.6155 
" style="fill:none;stroke:#000000;stroke-dasharray:1.85,0.8;stroke-dashoffset:0;stroke-width:0.5;"/>
   </g>
   <g id="line2d_34">
    <path clip-path="url(#pcd79304219)" d="M 541.587443 241.6155 
L 810.574321 243.251621 
" style="fill:none;stroke:#000000;stroke-dasharray:1.85,0.8;stroke-dashoffset:0;stroke-width:0.5;"/>
   </g>
   <g id="line2d_35">
    <path clip-path="url(#pcd79304219)" d="M 541.587443 240.3975 
L 802.193293 240.3975 
" style="fill:none;stroke:#000000;stroke-dasharray:1.85,0.8;stroke-dashoffset:0;stroke-width:0.5;"/>
   </g>
   <g id="line2d_36">
    <path clip-path="url(#pcd79304219)" d="M 541.587443 240.3975 
L 806.692582 241.933486 
" style="fill:none;stroke:#000000;stroke-dasharray:1.85,0.8;stroke-dashoffset:0;stroke-width:0.5;"/>
   </g>
   <g id="line2d_37">
    <path clip-path="url(#pcd79304219)" d="M 541.587443 240.7455 
L 803.251949 240.7455 
" style="fill:none;stroke:#000000;stroke-dasharray:1.85,0.8;stroke-dashoffset:0;stroke-width:0.5;"/>
   </g>
   <g id="line2d_38">
    <path clip-path="url(#pcd79304219)" d="M 541.587443 240.7455 
L 806.339696 241.819089 
" style="fill:none;stroke:#000000;stroke-dasharray:1.85,0.8;stroke-dashoffset:0;stroke-width:0.5;"/>
   </g>
   <g id="line2d_39">
    <path clip-path="url(#pcd79304219)" d="M 541.587443 187.806 
L 644.982858 187.806 
" style="fill:none;stroke:#000000;stroke-dasharray:1.85,0.8;stroke-dashoffset:0;stroke-width:0.5;"/>
   </g>
   <g id="line2d_40">
    <path clip-path="url(#pcd79304219)" d="M 541.587443 187.806 
L 955.605625 294.813148 
" style="fill:none;stroke:#000000;stroke-dasharray:1.85,0.8;stroke-dashoffset:0;stroke-width:0.5;"/>
   </g>
   <g id="line2d_41">
    <path clip-path="url(#pcd79304219)" d="M 541.587443 201.9 
L 687.593767 201.9 
" style="fill:none;stroke:#000000;stroke-dasharray:1.85,0.8;stroke-dashoffset:0;stroke-width:0.5;"/>
   </g>
   <g id="line2d_42">
    <path clip-path="url(#pcd79304219)" d="M 541.587443 201.9 
L 907.882463 276.641017 
" style="fill:none;stroke:#000000;stroke-dasharray:1.85,0.8;stroke-dashoffset:0;stroke-width:0.5;"/>
   </g>
   <g id="patch_9">
    <path d="M 541.587443 315 
L 541.587443 54 
" style="fill:none;stroke:#000000;stroke-linecap:square;stroke-linejoin:miter;stroke-width:0.8;"/>
   </g>
   <g id="patch_10">
    <path d="M 947.405625 315 
L 947.405625 54 
" style="fill:none;stroke:#000000;stroke-linecap:square;stroke-linejoin:miter;stroke-width:0.8;"/>
   </g>
   <g id="patch_11">
    <path d="M 541.587443 315 
L 947.405625 315 
" style="fill:none;stroke:#000000;stroke-linecap:square;stroke-linejoin:miter;stroke-width:0.8;"/>
   </g>
   <g id="patch_12">
    <path d="M 541.587443 54 
L 947.405625 54 
" style="fill:none;stroke:#000000;stroke-linecap:square;stroke-linejoin:miter;stroke-width:0.8;"/>
   </g>
   <g id="text_33">
    <!-- Mantle evolution line -->
    <g transform="translate(718.910335 181.612922)rotate(-341)scale(0.13 -0.13)">
     <use xlink:href="#DejaVuSans-77"/>
     <use x="86.279297" xlink:href="#DejaVuSans-97"/>
     <use x="147.558594" xlink:href="#DejaVuSans-110"/>
     <use x="210.9375" xlink:href="#DejaVuSans-116"/>
     <use x="250.146484" xlink:href="#DejaVuSans-108"/>
     <use x="277.929688" xlink:href="#DejaVuSans-101"/>
     <use x="339.453125" xlink:href="#DejaVuSans-32"/>
     <use x="371.240234" xlink:href="#DejaVuSans-101"/>
     <use x="432.763672" xlink:href="#DejaVuSans-118"/>
     <use x="491.943359" xlink:href="#DejaVuSans-111"/>
     <use x="553.125" xlink:href="#DejaVuSans-108"/>
     <use x="580.908203" xlink:href="#DejaVuSans-117"/>
     <use x="644.287109" xlink:href="#DejaVuSans-116"/>
     <use x="683.496094" xlink:href="#DejaVuSans-105"/>
     <use x="711.279297" xlink:href="#DejaVuSans-111"/>
     <use x="772.460938" xlink:href="#DejaVuSans-110"/>
     <use x="835.839844" xlink:href="#DejaVuSans-32"/>
     <use x="867.626953" xlink:href="#DejaVuSans-108"/>
     <use x="895.410156" xlink:href="#DejaVuSans-105"/>
     <use x="923.193359" xlink:href="#DejaVuSans-110"/>
     <use x="986.572266" xlink:href="#DejaVuSans-101"/>
    </g>
   </g>
   <g id="text_34">
    <!-- $^{187}Os/^{188}Os$ vs Age (CHUR model) -->
    <defs>
     <path d="M 9.8125 72.90625 
L 19.671875 72.90625 
L 19.671875 43.015625 
L 55.515625 43.015625 
L 55.515625 72.90625 
L 65.375 72.90625 
L 65.375 0 
L 55.515625 0 
L 55.515625 34.71875 
L 19.671875 34.71875 
L 19.671875 0 
L 9.8125 0 
z
" id="DejaVuSans-72"/>
     <path d="M 8.6875 72.90625 
L 18.609375 72.90625 
L 18.609375 28.609375 
Q 18.609375 16.890625 22.84375 11.734375 
Q 27.09375 6.59375 36.625 6.59375 
Q 46.09375 6.59375 50.34375 11.734375 
Q 54.59375 16.890625 54.59375 28.609375 
L 54.59375 72.90625 
L 64.5 72.90625 
L 64.5 27.390625 
Q 64.5 13.140625 57.4375 5.859375 
Q 50.390625 -1.421875 36.625 -1.421875 
Q 22.796875 -1.421875 15.734375 5.859375 
Q 8.6875 13.140625 8.6875 27.390625 
z
" id="DejaVuSans-85"/>
     <path d="M 44.390625 34.1875 
Q 47.5625 33.109375 50.5625 29.59375 
Q 53.5625 26.078125 56.59375 19.921875 
L 66.609375 0 
L 56 0 
L 46.6875 18.703125 
Q 43.0625 26.03125 39.671875 28.421875 
Q 36.28125 30.8125 30.421875 30.8125 
L 19.671875 30.8125 
L 19.671875 0 
L 9.8125 0 
L 9.8125 72.90625 
L 32.078125 72.90625 
Q 44.578125 72.90625 50.734375 67.671875 
Q 56.890625 62.453125 56.890625 51.90625 
Q 56.890625 45.015625 53.6875 40.46875 
Q 50.484375 35.9375 44.390625 34.1875 
z
M 19.671875 64.796875 
L 19.671875 38.921875 
L 32.078125 38.921875 
Q 39.203125 38.921875 42.84375 42.21875 
Q 46.484375 45.515625 46.484375 51.90625 
Q 46.484375 58.296875 42.84375 61.546875 
Q 39.203125 64.796875 32.078125 64.796875 
z
" id="DejaVuSans-82"/>
     <path d="M 45.40625 46.390625 
L 45.40625 75.984375 
L 54.390625 75.984375 
L 54.390625 0 
L 45.40625 0 
L 45.40625 8.203125 
Q 42.578125 3.328125 38.25 0.953125 
Q 33.9375 -1.421875 27.875 -1.421875 
Q 17.96875 -1.421875 11.734375 6.484375 
Q 5.515625 14.40625 5.515625 27.296875 
Q 5.515625 40.1875 11.734375 48.09375 
Q 17.96875 56 27.875 56 
Q 33.9375 56 38.25 53.625 
Q 42.578125 51.265625 45.40625 46.390625 
z
M 14.796875 27.296875 
Q 14.796875 17.390625 18.875 11.75 
Q 22.953125 6.109375 30.078125 6.109375 
Q 37.203125 6.109375 41.296875 11.75 
Q 45.40625 17.390625 45.40625 27.296875 
Q 45.40625 37.203125 41.296875 42.84375 
Q 37.203125 48.484375 30.078125 48.484375 
Q 22.953125 48.484375 18.875 42.84375 
Q 14.796875 37.203125 14.796875 27.296875 
z
" id="DejaVuSans-100"/>
    </defs>
    <g transform="translate(643.756534 48)scale(0.12 -0.12)">
     <use transform="translate(0.957031 39.046875)scale(0.7)" xlink:href="#DejaVuSans-49"/>
     <use transform="translate(45.493164 39.046875)scale(0.7)" xlink:href="#DejaVuSans-56"/>
     <use transform="translate(90.029297 39.046875)scale(0.7)" xlink:href="#DejaVuSans-55"/>
     <use transform="translate(137.299805 0.765625)" xlink:href="#DejaVuSans-Oblique-79"/>
     <use transform="translate(216.010742 0.765625)" xlink:href="#DejaVuSans-Oblique-115"/>
     <use transform="translate(268.110352 0.765625)" xlink:href="#DejaVuSans-47"/>
     <use transform="translate(302.758789 39.046875)scale(0.7)" xlink:href="#DejaVuSans-49"/>
     <use transform="translate(347.294922 39.046875)scale(0.7)" xlink:href="#DejaVuSans-56"/>
     <use transform="translate(391.831055 39.046875)scale(0.7)" xlink:href="#DejaVuSans-56"/>
     <use transform="translate(439.101562 0.765625)" xlink:href="#DejaVuSans-Oblique-79"/>
     <use transform="translate(517.8125 0.765625)" xlink:href="#DejaVuSans-Oblique-115"/>
     <use transform="translate(569.912109 0.765625)" xlink:href="#DejaVuSans-32"/>
     <use transform="translate(601.699219 0.765625)" xlink:href="#DejaVuSans-118"/>
     <use transform="translate(660.878906 0.765625)" xlink:href="#DejaVuSans-115"/>
     <use transform="translate(712.978516 0.765625)" xlink:href="#DejaVuSans-32"/>
     <use transform="translate(744.765625 0.765625)" xlink:href="#DejaVuSans-65"/>
     <use transform="translate(813.173828 0.765625)" xlink:href="#DejaVuSans-103"/>
     <use transform="translate(876.650391 0.765625)" xlink:href="#DejaVuSans-101"/>
     <use transform="translate(938.173828 0.765625)" xlink:href="#DejaVuSans-32"/>
     <use transform="translate(969.960938 0.765625)" xlink:href="#DejaVuSans-40"/>
     <use transform="translate(1008.974609 0.765625)" xlink:href="#DejaVuSans-67"/>
     <use transform="translate(1078.798828 0.765625)" xlink:href="#DejaVuSans-72"/>
     <use transform="translate(1153.994141 0.765625)" xlink:href="#DejaVuSans-85"/>
     <use transform="translate(1227.15625 0.765625)" xlink:href="#DejaVuSans-82"/>
     <use transform="translate(1296.638672 0.765625)" xlink:href="#DejaVuSans-32"/>
     <use transform="translate(1328.425781 0.765625)" xlink:href="#DejaVuSans-109"/>
     <use transform="translate(1425.837891 0.765625)" xlink:href="#DejaVuSans-111"/>
     <use transform="translate(1487.019531 0.765625)" xlink:href="#DejaVuSans-100"/>
     <use transform="translate(1550.496094 0.765625)" xlink:href="#DejaVuSans-101"/>
     <use transform="translate(1612.019531 0.765625)" xlink:href="#DejaVuSans-108"/>
     <use transform="translate(1639.802734 0.765625)" xlink:href="#DejaVuSans-41"/>
    </g>
   </g>
   <g id="legend_2">
    <g id="patch_13">
     <path d="M 862.205625 91.35625 
L 940.405625 91.35625 
Q 942.405625 91.35625 942.405625 89.35625 
L 942.405625 61 
Q 942.405625 59 940.405625 59 
L 862.205625 59 
Q 860.205625 59 860.205625 61 
L 860.205625 89.35625 
Q 860.205625 91.35625 862.205625 91.35625 
z
" style="fill:#ffffff;opacity:0.8;stroke:#cccccc;stroke-linejoin:miter;"/>
    </g>
    <g id="PathCollection_41">
     <defs>
      <path d="M -0 3 
L 3 -3 
L -3 -3 
z
" id="m9493f45e30" style="stroke:#000000;"/>
     </defs>
     <g>
      <use style="stroke:#000000;" x="874.205625" xlink:href="#m9493f45e30" y="67.973437"/>
     </g>
    </g>
    <g id="text_35">
     <!-- $T_{RD}$ (Ma.) -->
     <defs>
      <path d="M 5.90625 72.90625 
L 67.578125 72.90625 
L 66.015625 64.59375 
L 39.984375 64.59375 
L 27.484375 0 
L 17.578125 0 
L 30.078125 64.59375 
L 4.296875 64.59375 
z
" id="DejaVuSans-Oblique-84"/>
      <path d="M 25.203125 64.796875 
L 20.21875 38.921875 
L 32.90625 38.921875 
Q 40.375 38.921875 44.984375 43.046875 
Q 49.609375 47.171875 49.609375 53.8125 
Q 49.609375 59.125 46.5 61.953125 
Q 43.40625 64.796875 37.59375 64.796875 
z
M 43.3125 35.015625 
Q 46.4375 34.28125 48.515625 31.390625 
Q 50.59375 28.515625 53.328125 19.921875 
L 59.515625 0 
L 49.125 0 
L 43.40625 18.703125 
Q 41.21875 25.921875 38.328125 28.359375 
Q 35.453125 30.8125 29.5 30.8125 
L 18.609375 30.8125 
L 12.59375 0 
L 2.6875 0 
L 16.890625 72.90625 
L 39.109375 72.90625 
Q 49.21875 72.90625 54.609375 68.328125 
Q 60.015625 63.765625 60.015625 55.171875 
Q 60.015625 47.5625 55.421875 41.984375 
Q 50.828125 36.421875 43.3125 35.015625 
z
" id="DejaVuSans-Oblique-82"/>
      <path d="M 16.890625 72.90625 
L 38.09375 72.90625 
Q 54.984375 72.90625 63.59375 65.75 
Q 72.21875 58.59375 72.21875 44.484375 
Q 72.21875 35.15625 68.9375 26.53125 
Q 65.671875 17.921875 59.90625 12.015625 
Q 54.109375 5.953125 45.171875 2.96875 
Q 36.234375 0 24.03125 0 
L 2.6875 0 
z
M 25.203125 64.796875 
L 14.203125 8.109375 
L 27.09375 8.109375 
Q 43.65625 8.109375 52.734375 17.625 
Q 61.8125 27.15625 61.8125 44.484375 
Q 61.8125 54.984375 55.953125 59.890625 
Q 50.09375 64.796875 37.59375 64.796875 
z
" id="DejaVuSans-Oblique-68"/>
     </defs>
     <g transform="translate(892.205625 70.598437)scale(0.1 -0.1)">
      <use transform="translate(0 0.125)" xlink:href="#DejaVuSans-Oblique-84"/>
      <use transform="translate(61.083984 -16.28125)scale(0.7)" xlink:href="#DejaVuSans-Oblique-82"/>
      <use transform="translate(109.72168 -16.28125)scale(0.7)" xlink:href="#DejaVuSans-Oblique-68"/>
      <use transform="translate(166.357422 0.125)" xlink:href="#DejaVuSans-32"/>
      <use transform="translate(198.144531 0.125)" xlink:href="#DejaVuSans-40"/>
      <use transform="translate(237.158203 0.125)" xlink:href="#DejaVuSans-77"/>
      <use transform="translate(323.4375 0.125)" xlink:href="#DejaVuSans-97"/>
      <use transform="translate(384.716797 0.125)" xlink:href="#DejaVuSans-46"/>
      <use transform="translate(416.503906 0.125)" xlink:href="#DejaVuSans-41"/>
     </g>
    </g>
    <g id="PathCollection_42">
     <path d="M 874.205625 85.651562 
L 877.205625 79.651562 
L 871.205625 79.651562 
z
" style="fill:none;stroke:#000000;"/>
    </g>
    <g id="text_36">
     <!-- $T_{MA}$ (Ma.) -->
     <defs>
      <path d="M 16.890625 72.90625 
L 31.6875 72.90625 
L 40.1875 23.78125 
L 68.40625 72.90625 
L 83.59375 72.90625 
L 69.390625 0 
L 59.8125 0 
L 72.21875 63.921875 
L 43.609375 14.015625 
L 33.984375 14.015625 
L 24.703125 64.109375 
L 12.3125 0 
L 2.6875 0 
z
" id="DejaVuSans-Oblique-77"/>
      <path d="M 36.8125 72.90625 
L 48 72.90625 
L 61.53125 0 
L 51.21875 0 
L 48.1875 18.703125 
L 15.375 18.703125 
L 5.078125 0 
L -5.328125 0 
z
M 40.375 63.1875 
L 19.921875 26.90625 
L 46.6875 26.90625 
z
" id="DejaVuSans-Oblique-65"/>
     </defs>
     <g transform="translate(892.205625 85.276562)scale(0.1 -0.1)">
      <use transform="translate(0 0.125)" xlink:href="#DejaVuSans-Oblique-84"/>
      <use transform="translate(61.083984 -16.28125)scale(0.7)" xlink:href="#DejaVuSans-Oblique-77"/>
      <use transform="translate(121.479492 -16.28125)scale(0.7)" xlink:href="#DejaVuSans-Oblique-65"/>
      <use transform="translate(172.099609 0.125)" xlink:href="#DejaVuSans-32"/>
      <use transform="translate(203.886719 0.125)" xlink:href="#DejaVuSans-40"/>
      <use transform="translate(242.900391 0.125)" xlink:href="#DejaVuSans-77"/>
      <use transform="translate(329.179688 0.125)" xlink:href="#DejaVuSans-97"/>
      <use transform="translate(390.458984 0.125)" xlink:href="#DejaVuSans-46"/>
      <use transform="translate(422.246094 0.125)" xlink:href="#DejaVuSans-41"/>
     </g>
    </g>
   </g>
  </g>
  <g id="text_37">
   <!-- Calculation of $T_{RD}$ and $T_{MA}$ age  -->
   <defs>
    <path d="M 37.109375 75.984375 
L 37.109375 68.5 
L 28.515625 68.5 
Q 23.6875 68.5 21.796875 66.546875 
Q 19.921875 64.59375 19.921875 59.515625 
L 19.921875 54.6875 
L 34.71875 54.6875 
L 34.71875 47.703125 
L 19.921875 47.703125 
L 19.921875 0 
L 10.890625 0 
L 10.890625 47.703125 
L 2.296875 47.703125 
L 2.296875 54.6875 
L 10.890625 54.6875 
L 10.890625 58.5 
Q 10.890625 67.625 15.140625 71.796875 
Q 19.390625 75.984375 28.609375 75.984375 
z
" id="DejaVuSans-102"/>
   </defs>
   <g transform="translate(393.125625 16.32)scale(0.12 -0.12)">
    <use transform="translate(0 0.015625)" xlink:href="#DejaVuSans-67"/>
    <use transform="translate(69.824219 0.015625)" xlink:href="#DejaVuSans-97"/>
    <use transform="translate(131.103516 0.015625)" xlink:href="#DejaVuSans-108"/>
    <use transform="translate(158.886719 0.015625)" xlink:href="#DejaVuSans-99"/>
    <use transform="translate(213.867188 0.015625)" xlink:href="#DejaVuSans-117"/>
    <use transform="translate(277.246094 0.015625)" xlink:href="#DejaVuSans-108"/>
    <use transform="translate(305.029297 0.015625)" xlink:href="#DejaVuSans-97"/>
    <use transform="translate(366.308594 0.015625)" xlink:href="#DejaVuSans-116"/>
    <use transform="translate(405.517578 0.015625)" xlink:href="#DejaVuSans-105"/>
    <use transform="translate(433.300781 0.015625)" xlink:href="#DejaVuSans-111"/>
    <use transform="translate(494.482422 0.015625)" xlink:href="#DejaVuSans-110"/>
    <use transform="translate(557.861328 0.015625)" xlink:href="#DejaVuSans-32"/>
    <use transform="translate(589.648438 0.015625)" xlink:href="#DejaVuSans-111"/>
    <use transform="translate(650.830078 0.015625)" xlink:href="#DejaVuSans-102"/>
    <use transform="translate(686.035156 0.015625)" xlink:href="#DejaVuSans-32"/>
    <use transform="translate(717.822266 0.015625)" xlink:href="#DejaVuSans-Oblique-84"/>
    <use transform="translate(778.90625 -16.390625)scale(0.7)" xlink:href="#DejaVuSans-Oblique-82"/>
    <use transform="translate(827.543945 -16.390625)scale(0.7)" xlink:href="#DejaVuSans-Oblique-68"/>
    <use transform="translate(884.179688 0.015625)" xlink:href="#DejaVuSans-32"/>
    <use transform="translate(915.966797 0.015625)" xlink:href="#DejaVuSans-97"/>
    <use transform="translate(977.246094 0.015625)" xlink:href="#DejaVuSans-110"/>
    <use transform="translate(1040.625 0.015625)" xlink:href="#DejaVuSans-100"/>
    <use transform="translate(1104.101562 0.015625)" xlink:href="#DejaVuSans-32"/>
    <use transform="translate(1135.888672 0.015625)" xlink:href="#DejaVuSans-Oblique-84"/>
    <use transform="translate(1196.972656 -16.390625)scale(0.7)" xlink:href="#DejaVuSans-Oblique-77"/>
    <use transform="translate(1257.368164 -16.390625)scale(0.7)" xlink:href="#DejaVuSans-Oblique-65"/>
    <use transform="translate(1307.988281 0.015625)" xlink:href="#DejaVuSans-32"/>
    <use transform="translate(1339.775391 0.015625)" xlink:href="#DejaVuSans-97"/>
    <use transform="translate(1401.054688 0.015625)" xlink:href="#DejaVuSans-103"/>
    <use transform="translate(1464.53125 0.015625)" xlink:href="#DejaVuSans-101"/>
    <use transform="translate(1526.054688 0.015625)" xlink:href="#DejaVuSans-32"/>
   </g>
  </g>
 </g>
 <defs>
  <clipPath id="pa802229e99">
   <rect height="261" width="405.818182" x="54.605625" y="54"/>
  </clipPath>
  <clipPath id="pcd79304219">
   <rect height="261" width="405.818182" x="541.587443" y="54"/>
  </clipPath>
 </defs>
</svg>
